999
"DXF R12 Output" (www.mydxf.blogspot.com)
 0 
SECTION
 2 
HEADER
 9 
$ACADVER
 1 
AC1009
 9 
$EXTMIN
 10 
 0 
 20 
 0 
 9 
$EXTMAX
 10 
 8.5 
 20 
 11 
 0 
ENDSEC
 0 
SECTION
 2 
ENTITIES
0
LINE
8
Layer 1
10
23.497700
20
23.772400
11
22.290940
21
24.219256
0
LINE
8
Layer 1
10
22.290940
20
24.219256
11
21.217635
21
24.927420
0
LINE
8
Layer 1
10
21.217635
20
24.927420
11
20.082356
21
26.003661
0
LINE
8
Layer 1
10
20.082356
20
26.003661
11
18.849167
21
27.486812
0
LINE
8
Layer 1
10
18.849167
20
27.486812
11
17.482130
21
29.415706
0
LINE
8
Layer 1
10
17.482130
20
29.415706
11
16.129529
21
31.758351
0
LINE
8
Layer 1
10
16.129529
20
31.758351
11
14.981201
21
34.388111
0
LINE
8
Layer 1
10
14.981201
20
34.388111
11
14.092315
21
37.158743
0
LINE
8
Layer 1
10
14.092315
20
37.158743
11
13.518040
21
39.924006
0
LINE
8
Layer 1
10
13.518040
20
39.924006
11
13.303808
21
42.611946
0
LINE
8
Layer 1
10
13.303808
20
42.611946
11
13.384320
21
44.991805
0
LINE
8
Layer 1
10
13.384320
20
44.991805
11
13.772988
21
47.145006
0
LINE
8
Layer 1
10
13.772988
20
47.145006
11
14.622439
21
49.502804
0
LINE
8
Layer 1
10
14.622439
20
49.502804
11
15.874001
21
51.550870
0
LINE
8
Layer 1
10
15.874001
20
51.550870
11
17.489437
21
53.239369
0
LINE
8
Layer 1
10
17.489437
20
53.239369
11
19.430508
21
54.518466
0
LINE
8
Layer 1
10
19.430508
20
54.518466
11
21.305274
21
55.264096
0
LINE
8
Layer 1
10
21.305274
20
55.264096
11
23.293988
21
55.597796
0
LINE
8
Layer 1
10
23.293988
20
55.597796
11
24.315586
21
55.612930
0
LINE
8
Layer 1
10
24.315586
20
55.612930
11
25.344537
21
55.472715
0
LINE
8
Layer 1
10
25.344537
20
55.472715
11
28.048388
21
54.594596
0
LINE
8
Layer 1
10
28.048388
20
54.594596
11
30.082357
21
53.890804
0
LINE
8
Layer 1
10
30.082357
20
53.890804
11
31.192978
21
53.840013
0
LINE
8
Layer 1
10
31.192978
20
53.840013
11
33.501028
21
54.608938
0
LINE
8
Layer 1
10
33.501028
20
54.608938
11
35.265150
21
55.241791
0
LINE
8
Layer 1
10
35.265150
20
55.241791
11
36.671352
21
55.610232
0
LINE
8
Layer 1
10
36.671352
20
55.610232
11
37.918252
21
55.752493
0
LINE
8
Layer 1
10
37.918252
20
55.752493
11
39.204468
21
55.706808
0
LINE
8
Layer 1
10
39.204468
20
55.706808
11
40.795037
21
55.454042
0
LINE
8
Layer 1
10
40.795037
20
55.454042
11
42.265397
21
55.002081
0
LINE
8
Layer 1
10
42.265397
20
55.002081
11
43.610692
21
54.352823
0
LINE
8
Layer 1
10
43.610692
20
54.352823
11
44.826068
21
53.508168
0
LINE
8
Layer 1
10
44.826068
20
53.508168
11
45.940639
21
52.407299
0
LINE
8
Layer 1
10
45.940639
20
52.407299
11
46.590628
21
51.553468
0
LINE
8
Layer 1
10
46.590628
20
51.553468
11
46.351572
21
51.352512
0
LINE
8
Layer 1
10
46.351572
20
51.352512
11
44.719282
21
49.964842
0
LINE
8
Layer 1
10
44.719282
20
49.964842
11
43.754181
21
48.821688
0
LINE
8
Layer 1
10
43.754181
20
48.821688
11
43.005305
21
47.596512
0
LINE
8
Layer 1
10
43.005305
20
47.596512
11
42.470520
21
46.285094
0
LINE
8
Layer 1
10
42.470520
20
46.285094
11
42.147692
21
44.883212
0
LINE
8
Layer 1
10
42.147692
20
44.883212
11
42.148821
21
42.231802
0
LINE
8
Layer 1
10
42.148821
20
42.231802
11
42.636103
21
40.266787
0
LINE
8
Layer 1
10
42.636103
20
40.266787
11
43.525841
21
38.488912
0
LINE
8
Layer 1
10
43.525841
20
38.488912
11
44.325829
21
37.455396
0
LINE
8
Layer 1
10
44.325829
20
37.455396
11
45.287805
21
36.510051
0
LINE
8
Layer 1
10
45.287805
20
36.510051
11
46.354274
21
35.702561
0
LINE
8
Layer 1
10
46.354274
20
35.702561
11
47.467741
21
35.082612
0
LINE
8
Layer 1
10
47.467741
20
35.082612
11
47.729699
21
34.947137
0
LINE
8
Layer 1
10
47.729699
20
34.947137
11
47.138495
21
33.295257
0
LINE
8
Layer 1
10
47.138495
20
33.295257
11
45.851622
21
30.638556
0
LINE
8
Layer 1
10
45.851622
20
30.638556
11
44.061835
21
27.873817
0
LINE
8
Layer 1
10
44.061835
20
27.873817
11
42.686167
21
26.136207
0
LINE
8
Layer 1
10
42.686167
20
26.136207
11
41.465425
21
24.959267
0
LINE
8
Layer 1
10
41.465425
20
24.959267
11
40.120857
21
24.145156
0
LINE
8
Layer 1
10
40.120857
20
24.145156
11
38.716544
21
23.771291
0
LINE
8
Layer 1
10
38.716544
20
23.771291
11
37.212988
21
23.833438
0
LINE
8
Layer 1
10
37.212988
20
23.833438
11
35.570695
21
24.327361
0
LINE
8
Layer 1
10
35.570695
20
24.327361
11
34.403885
21
24.806094
0
LINE
8
Layer 1
10
34.403885
20
24.806094
11
32.901142
21
25.273424
0
LINE
8
Layer 1
10
32.901142
20
25.273424
11
31.328695
21
25.409067
0
LINE
8
Layer 1
10
31.328695
20
25.409067
11
29.495577
21
25.225636
0
LINE
8
Layer 1
10
29.495577
20
25.225636
11
27.433455
21
24.500823
0
LINE
8
Layer 1
10
27.433455
20
24.500823
11
25.796887
21
23.908629
0
LINE
8
Layer 1
10
25.796887
20
23.908629
11
24.449385
21
23.726016
0
LINE
8
Layer 1
10
24.449385
20
23.726016
11
23.497807
21
23.772427
0
LINE
8
Layer 1
10
23.497807
20
23.772427
11
23.497700
21
23.772400
0
LINE
8
Layer 1
10
30.435500
20
56.304800
11
30.427965
21
57.227357
0
LINE
8
Layer 1
10
30.427965
20
57.227357
11
30.573877
21
58.574797
0
LINE
8
Layer 1
10
30.573877
20
58.574797
11
30.946560
21
59.805048
0
LINE
8
Layer 1
10
30.946560
20
59.805048
11
31.482095
21
60.978573
0
LINE
8
Layer 1
10
31.482095
20
60.978573
11
32.167580
21
62.071431
0
LINE
8
Layer 1
10
32.167580
20
62.071431
11
32.990117
21
63.059677
0
LINE
8
Layer 1
10
32.990117
20
63.059677
11
34.220291
21
64.131955
0
LINE
8
Layer 1
10
34.220291
20
64.131955
11
35.631780
21
64.999388
0
LINE
8
Layer 1
10
35.631780
20
64.999388
11
37.125416
21
65.611471
0
LINE
8
Layer 1
10
37.125416
20
65.611471
11
38.602027
21
65.917697
0
LINE
8
Layer 1
10
38.602027
20
65.917697
11
38.927782
21
65.948674
0
LINE
8
Layer 1
10
38.927782
20
65.948674
11
38.961044
21
65.549379
0
LINE
8
Layer 1
10
38.961044
20
65.549379
11
38.930383
21
64.239872
0
LINE
8
Layer 1
10
38.930383
20
64.239872
11
38.648183
21
62.846488
0
LINE
8
Layer 1
10
38.648183
20
62.846488
11
38.138754
21
61.454752
0
LINE
8
Layer 1
10
38.138754
20
61.454752
11
37.426404
21
60.150189
0
LINE
8
Layer 1
10
37.426404
20
60.150189
11
36.060314
21
58.488309
0
LINE
8
Layer 1
10
36.060314
20
58.488309
11
34.863622
21
57.511288
0
LINE
8
Layer 1
10
34.863622
20
57.511288
11
33.574387
21
56.789290
0
LINE
8
Layer 1
10
33.574387
20
56.789290
11
32.236383
21
56.341802
0
LINE
8
Layer 1
10
32.236383
20
56.341802
11
30.893384
21
56.188309
0
LINE
8
Layer 1
10
30.893384
20
56.188309
11
30.517072
21
56.203569
0
LINE
8
Layer 1
10
30.517072
20
56.203569
11
30.435507
21
56.304800
0
LINE
8
Layer 1
10
30.435507
20
56.304800
11
30.435500
21
56.304800
 0 
ENDSEC
 0 
EOF